<?xml version="1.0" encoding="iso-8859-1"?>
<!-- Uploaded to: SVG Repo, www.svgrepo.com, Generator: SVG Repo Mixer Tools -->
<svg fill="#000000" height="24" width="24" version="1.1" id="Layer_1" xmlns="http://www.w3.org/2000/svg" xmlns:xlink="http://www.w3.org/1999/xlink" 
	 viewBox="0 0 512 512" xml:space="preserve">
<g>
	<g>
		<g>
			<path d="M503.467,153.6H460.8v-17.749c28.902-4.164,51.2-29.013,51.2-59.051c0-32.939-26.803-59.733-59.733-59.733
				c-32.93,0-59.733,26.795-59.733,59.733c0,30.037,22.298,54.886,51.2,59.051V153.6h-42.667c-4.719,0-8.533,3.823-8.533,8.533
				v34.133c0,4.71,3.814,8.533,8.533,8.533h42.667v281.6c0,4.71,3.814,8.533,8.533,8.533c4.719,0,8.533-3.823,8.533-8.533V204.8
				h42.667c4.719,0,8.533-3.823,8.533-8.533v-34.133C512,157.423,508.186,153.6,503.467,153.6z M409.6,76.8
				c0-23.526,19.14-42.667,42.667-42.667c23.526,0,42.667,19.14,42.667,42.667s-19.14,42.667-42.667,42.667
				C428.74,119.467,409.6,100.326,409.6,76.8z M494.933,187.733H409.6v-17.067h85.333V187.733z"/>
			<path d="M110.933,221.867H76.8c-4.719,0-8.533,3.823-8.533,8.533v51.2c0,4.71,3.814,8.533,8.533,8.533h34.133
				c4.719,0,8.533-3.823,8.533-8.533v-51.2C119.467,225.69,115.652,221.867,110.933,221.867z M102.4,273.067H85.333v-34.133H102.4
				V273.067z"/>
			<path d="M25.6,426.667c4.719,0,8.533-3.823,8.533-8.533V170.667h332.8c4.719,0,8.533-3.823,8.533-8.533
				c0-4.71-3.814-8.533-8.533-8.533h-332.8v-8.533c0-4.71-3.814-8.533-8.533-8.533s-8.533,3.823-8.533,8.533v273.067
				C17.067,422.844,20.881,426.667,25.6,426.667z"/>
			<path d="M290.133,281.6v-51.2c0-4.71-3.814-8.533-8.533-8.533h-34.133c-4.719,0-8.533,3.823-8.533,8.533v51.2
				c0,4.71,3.814,8.533,8.533,8.533H281.6C286.319,290.133,290.133,286.31,290.133,281.6z M273.067,273.067H256v-34.133h17.067
				V273.067z"/>
			<path d="M349.867,443.733c4.719,0,8.533-3.823,8.533-8.533v-93.867h8.533c4.719,0,8.533-3.823,8.533-8.533
				s-3.814-8.533-8.533-8.533h-102.4c-4.719,0-8.533,3.823-8.533,8.533s3.814,8.533,8.533,8.533h8.533V435.2
				c0,4.71,3.814,8.533,8.533,8.533c4.719,0,8.533-3.823,8.533-8.533v-93.867h51.2V384H332.8c-4.719,0-8.533,3.823-8.533,8.533
				s3.814,8.533,8.533,8.533h8.533V435.2C341.333,439.91,345.148,443.733,349.867,443.733z"/>
			<path d="M375.467,230.4c0-4.71-3.814-8.533-8.533-8.533H332.8c-4.719,0-8.533,3.823-8.533,8.533v51.2
				c0,4.71,3.814,8.533,8.533,8.533h34.133c4.719,0,8.533-3.823,8.533-8.533V230.4z M358.4,273.067h-17.067v-34.133H358.4V273.067z"
				/>
			<path d="M418.133,221.867c-4.719,0-8.533,3.823-8.533,8.533v204.8c0,4.71,3.814,8.533,8.533,8.533s8.533-3.823,8.533-8.533V230.4
				C426.667,225.69,422.852,221.867,418.133,221.867z"/>
			<path d="M204.8,230.4c0-4.71-3.814-8.533-8.533-8.533h-34.133c-4.719,0-8.533,3.823-8.533,8.533v51.2
				c0,4.71,3.814,8.533,8.533,8.533h34.133c4.719,0,8.533-3.823,8.533-8.533V230.4z M187.733,273.067h-17.067v-34.133h17.067
				V273.067z"/>
			<path d="M418.133,460.8H145.067c-4.719,0-8.533,3.823-8.533,8.533c0,4.71,3.814,8.533,8.533,8.533H409.6v8.533
				c0,4.71,3.814,8.533,8.533,8.533s8.533-3.823,8.533-8.533v-17.067C426.667,464.623,422.852,460.8,418.133,460.8z"/>
			<path d="M110.933,324.267H76.8c-4.719,0-8.533,3.823-8.533,8.533V384c0,4.71,3.814,8.533,8.533,8.533h34.133
				c4.719,0,8.533-3.823,8.533-8.533v-51.2C119.467,328.09,115.652,324.267,110.933,324.267z M102.4,375.467H85.333v-34.133H102.4
				V375.467z"/>
			<path d="M196.267,324.267h-34.133c-4.719,0-8.533,3.823-8.533,8.533V384c0,4.71,3.814,8.533,8.533,8.533h34.133
				c4.719,0,8.533-3.823,8.533-8.533v-51.2C204.8,328.09,200.986,324.267,196.267,324.267z M187.733,375.467h-17.067v-34.133h17.067
				V375.467z"/>
			<path d="M458.3,82.833l2.5-2.5v13.534c0,4.71,3.814,8.533,8.533,8.533s8.533-3.823,8.533-8.533V59.733
				c0-3.448-2.074-6.562-5.265-7.885c-3.191-1.323-6.861-0.589-9.301,1.852l-11.034,11.034L441.233,53.7
				c-2.441-2.441-6.11-3.166-9.301-1.852c-3.191,1.323-5.265,4.437-5.265,7.885v34.133c0,4.71,3.814,8.533,8.533,8.533
				s8.533-3.823,8.533-8.533V80.333l2.5,2.5C449.57,86.17,454.963,86.17,458.3,82.833z"/>
			<path d="M93.867,443.733c-1.476,0-2.944,0.128-4.386,0.384c-5.879-10.607-17.101-17.451-29.747-17.451
				s-23.868,6.844-29.747,17.451c-1.442-0.256-2.91-0.384-4.386-0.384c-14.114,0-25.6,11.486-25.6,25.6
				c0,14.114,11.486,25.6,25.6,25.6h68.267c14.114,0,25.6-11.486,25.6-25.6C119.467,455.219,107.981,443.733,93.867,443.733z
				 M93.867,477.867H25.6c-4.71,0-8.533-3.831-8.533-8.533c0-4.702,3.823-8.533,8.533-8.533c1.63,0,3.191,0.469,4.625,1.391
				c2.33,1.502,5.257,1.775,7.834,0.734c2.577-1.041,4.471-3.277,5.112-5.982c1.792-7.774,8.602-13.21,16.563-13.21
				s14.763,5.436,16.563,13.21c0.64,2.705,2.534,4.941,5.112,5.982c2.586,1.041,5.495,0.768,7.834-0.734
				c5.555-3.584,13.158,0.802,13.158,7.142C102.4,474.035,98.577,477.867,93.867,477.867z"/>
		</g>
	</g>
</g>
</svg>